<svg id="Layer_7" enable-background="new 0 0 200 200" height="512" viewBox="0 0 200 200" width="512" xmlns="http://www.w3.org/2000/svg"><path d="m68.9 9.9c0-3.3 2.7-6 6-6s6 2.7 6 6-2.7 6-6 6c-3.3.1-6-2.6-6-6zm-17.2 16.1c3.3 0 6-2.7 6-6s-2.7-6-6-6-6 2.7-6 6 2.7 6 6 6zm48.3-25.5c-3.3 0-6 2.7-6 6s2.7 6 6 6c43.5 0 79.5 30.9 86.3 72.9l-47.4-29.8c1.1 1.8 1.7 3.9 1.7 6.1 0 3.1-1 6-3 8.3-2.3 2.8-5.6 4.3-9.4 4.3-1.4 0-2.7-.2-4-.7-.9-.3-1.7-.8-2.6-1.3-.6-.4-1.3-.9-2-1.4-.1-.1-.2-.2-.4-.3-2.6-2.3-5.4-3.9-8.7-5-3.6-1.1-7.5-1.7-11.8-1.7-4.6 0-8.9.9-13 2.8-4.2 1.9-8 4.6-11.2 7.9s-5.8 7.2-7.6 11.5-2.7 8.7-2.7 13.4c0 4.9.9 9.6 2.7 13.9 1.8 4.4 4.4 8.3 7.6 11.5 3.2 3.3 6.9 5.9 11 7.7s8.5 2.7 13.2 2.7c4.1 0 8-.6 11.6-1.9 1.7-.6 3.4-1.4 5-2.3v-14.7h-13.3c-3.3 0-6.3-1.2-8.6-3.4-2.4-2.3-3.8-5.4-3.8-8.8s1.4-6.5 4-8.8c2.3-2 5.2-3.1 8.4-3.1h25.7c4.4 0 7.2 1.9 8.9 3.5 2.3 2.3 3.5 5.4 3.5 8.8v33c0 1.1-.1 2.1-.3 3.1-.4 2.1-1.5 4-3.1 5.6-5.3 5.3-11.5 8.9-18.4 10.9-6.3 1.8-12.9 2.7-19.6 2.7-8.1 0-15.9-1.6-23-4.8-.6-.3-1.3-.6-1.9-.9l49.9 29.5c-7.5 2.1-15.5 3.3-23.7 3.3-48.2 0-87.4-39.2-87.4-87.4 0-22.4 8.5-43.7 23.8-60 2.3-2.4 2.2-6.2-.2-8.5s-6.2-2.2-8.5.2c-17.6 19-27.2 43.2-27.2 68.7 0 54.9 44.6 99.5 99.5 99.5s99.5-44.6 99.5-99.5c0-58-44.8-99.5-99.5-99.5z"/></svg>